<svg width="413" height="343" viewBox="0 0 413 343" fill="none" xmlns="http://www.w3.org/2000/svg">
<path d="M295.706 0.52166C261.276 0.33766 228.545 15.4587 206.367 41.7947C184.328 15.2787 151.506 0.11466 117.028 0.52166C52.395 0.52166 0 52.9167 0 117.55C0 228.31 193.306 336.456 201.143 340.636C204.305 342.749 208.429 342.749 211.592 340.636C219.429 336.456 412.735 229.877 412.735 117.55C412.735 52.9167 360.339 0.52166 295.706 0.52166ZM206.367 319.738C176.065 301.975 20.898 207.412 20.898 117.55C20.898 64.4587 63.937 21.4187 117.029 21.4187C149.541 20.9917 179.967 37.3907 197.486 64.7817C201.043 69.6867 207.904 70.7797 212.809 67.2217C213.746 66.5417 214.57 65.7187 215.249 64.7817C244.304 20.3467 303.88 7.87866 348.315 36.9337C375.517 54.7207 391.89 85.0477 391.836 117.549C391.837 208.456 236.669 302.497 206.367 319.738Z" fill="white"/>
</svg>
