<svg width="502" height="291" viewBox="0 0 502 291" fill="none" xmlns="http://www.w3.org/2000/svg">
<path opacity="0.49" d="M392.016 104.37C288.127 104.716 224.76 59.6764 175.33 51.0102C101.058 37.9976 3.10416 71.6725 66.2741 164.833C129.444 257.993 162.181 281.687 275.922 289.635C366.976 295.996 447.183 259.544 479.093 230.452C529.113 184.938 495.944 104.024 392.016 104.37Z" fill="url(#paint0_linear)"/>
<g clip-path="url(#clip0)">
<path d="M304.244 192.375C303.213 191.344 303.266 189.627 304.361 188.535L316.183 176.709C317.278 175.618 318.996 175.564 320.027 176.592L327.015 183.58V78.8302L293.534 45.3491H186.394C182.694 45.3491 179.697 48.3456 179.697 52.0454V232.844C179.697 236.541 182.694 239.541 186.394 239.541H327.015V215.146L304.244 192.375Z" fill="#E9F0FB"/>
<path d="M189.74 232.844V52.0449C189.74 48.3487 192.74 45.3486 196.436 45.3486H186.392C182.695 45.3486 179.695 48.3487 179.695 52.0449V232.844C179.695 236.54 182.695 239.54 186.392 239.54H196.436C192.74 239.54 189.74 236.54 189.74 232.844Z" fill="white"/>
<path d="M316.969 206.059V239.54H327.013V212.755L316.969 206.059Z" fill="#4C93F4"/>
<path d="M293.532 45.3486H290.184L316.969 78.8298V176.173C317.993 175.668 319.219 175.785 320.026 176.592L327.013 183.579V78.8298L293.532 45.3486Z" fill="#4C93F4"/>
<path d="M327.015 78.8298H293.533V45.3486L327.015 78.8298Z" fill="#E9F0FB"/>
<path d="M364.599 233.681L361.331 236.949C357.876 240.404 352.438 240.572 349.187 237.317L304.245 192.375C303.217 191.344 303.271 189.626 304.363 188.535L316.185 176.709C317.276 175.618 318.997 175.567 320.025 176.592L364.967 221.537C368.221 224.788 368.054 230.226 364.599 233.681Z" fill="#FFE8B0"/>
<path d="M365.357 221.606L320.411 176.664C319.387 175.636 317.666 175.687 316.574 176.782L313.621 179.731L355.382 221.496C358.633 224.747 358.469 230.188 355.014 233.643L351.749 236.908C351.321 237.333 350.859 237.711 350.377 238.036C353.668 240.557 358.529 240.212 361.72 237.022L364.988 233.754C368.444 230.298 368.611 224.86 365.357 221.606Z" fill="#FFD46A"/>
<path d="M302.142 166.444C300.153 169.497 297.86 172.33 295.271 174.874L306.521 186.375L314.165 178.731L302.142 166.444Z" fill="#E9F0FB"/>
<path d="M260.052 189.318C232.316 189.318 209.83 166.832 209.83 139.096C209.83 111.36 232.316 88.874 260.052 88.874C287.788 88.874 310.274 111.36 310.274 139.096C310.274 166.832 287.788 189.318 260.052 189.318Z" fill="#E9F0FB"/>
<path d="M296.879 75.4819H318.93L296.879 53.4312V75.4819ZM327.013 82.1782H293.532C291.68 82.1782 290.184 80.6815 290.184 78.8302V45.3487C290.184 43.996 290.997 42.7706 292.249 42.2548C293.505 41.7359 294.941 42.0239 295.899 42.9812L329.38 76.4624C330.338 77.4201 330.625 78.8597 330.107 80.1119C329.59 81.3644 328.365 82.1782 327.013 82.1782Z" fill="#223762"/>
<path d="M260.051 92.2224C234.203 92.2224 213.177 113.249 213.177 139.096C213.177 164.944 234.203 185.97 260.051 185.97C285.898 185.97 306.924 164.944 306.924 139.097C306.924 113.249 285.898 92.2224 260.051 92.2224ZM260.051 192.666C230.513 192.666 206.48 168.633 206.48 139.096C206.48 109.559 230.513 85.5261 260.051 85.5261C289.588 85.5261 313.621 109.559 313.621 139.096C313.621 168.633 289.588 192.666 260.051 192.666Z" fill="#223762"/>
<path d="M223.221 142.445C221.369 142.445 219.873 140.948 219.873 139.097C219.873 116.942 237.896 98.9192 260.05 98.9192C261.902 98.9192 263.398 100.416 263.398 102.267C263.398 104.118 261.902 105.615 260.05 105.615C241.589 105.615 226.569 120.635 226.569 139.096C226.569 140.948 225.072 142.445 223.221 142.445Z" fill="#223762"/>
<path d="M307.118 190.511L351.555 234.948C352.472 235.865 353.811 236.391 355.08 236.3C356.52 236.257 357.899 235.644 358.964 234.58L362.232 231.315C363.296 230.247 363.909 228.867 363.953 227.428C363.993 226.068 363.514 224.816 362.6 223.905L318.164 179.466L307.118 190.511ZM354.91 243C351.829 243 348.967 241.828 346.82 239.685L301.879 194.744C299.545 192.403 299.602 188.559 301.996 186.166L313.818 174.344C316.212 171.946 320.059 171.896 322.393 174.223L367.335 219.172C369.568 221.402 370.747 224.408 370.65 227.636C370.549 230.783 369.244 233.773 366.967 236.05L363.699 239.314C361.426 241.591 358.436 242.897 355.289 242.997C355.161 243 355.037 243 354.91 243Z" fill="#223762"/>
<path d="M334.827 206.67C333.97 206.67 333.113 206.342 332.46 205.689C331.151 204.38 331.151 202.264 332.46 200.955L338.424 194.992C339.733 193.683 341.852 193.683 343.158 194.992C344.467 196.298 344.467 198.417 343.158 199.726L337.195 205.689C336.542 206.342 335.685 206.67 334.827 206.67Z" fill="#223762"/>
<path d="M342.937 214.779C342.08 214.779 341.223 214.451 340.57 213.798C339.261 212.489 339.261 210.373 340.57 209.064L346.533 203.105C347.842 201.795 349.961 201.795 351.267 203.105C352.576 204.41 352.576 206.53 351.267 207.839L345.304 213.798C344.651 214.451 343.794 214.779 342.937 214.779Z" fill="#223762"/>
<path d="M351.048 222.891C350.191 222.891 349.334 222.563 348.681 221.91C347.372 220.601 347.372 218.485 348.681 217.176L354.644 211.213C355.953 209.904 358.073 209.904 359.378 211.213C360.688 212.519 360.688 214.638 359.378 215.947L353.415 221.91C352.762 222.563 351.905 222.891 351.048 222.891Z" fill="#223762"/>
<path d="M299.924 174.844L306.547 181.614L309.456 178.704L302.556 171.657C301.715 172.758 300.835 173.819 299.924 174.844ZM306.493 191.136L290.543 174.827L292.924 172.487C295.301 170.15 297.46 167.501 299.335 164.615L301.615 161.117L318.872 178.758L306.493 191.136Z" fill="#223762"/>
<path d="M183.044 98.9188C183.044 100.77 181.547 102.267 179.696 102.267C177.844 102.267 176.348 100.77 176.348 98.9188C176.348 97.0675 177.844 95.5708 179.696 95.5708C181.547 95.5708 183.044 97.0675 183.044 98.9188Z" fill="#223762"/>
<path d="M327.013 242.888H186.392C180.854 242.888 176.348 238.381 176.348 232.844V112.311C176.348 110.46 177.844 108.963 179.696 108.963C181.547 108.963 183.044 110.46 183.044 112.311V232.844C183.044 234.692 184.543 236.192 186.392 236.192H323.665V216.532L301.875 194.742C299.545 192.405 299.598 188.558 301.992 186.167L313.818 174.341C316.209 171.948 320.059 171.897 322.389 174.221L323.665 175.497V80.2159L292.145 48.6965H186.392C184.544 48.6965 183.044 50.1964 183.044 52.0445V85.5256C183.044 87.3773 181.547 88.8735 179.696 88.8735C177.845 88.8735 176.348 87.3769 176.348 85.5256V52.0449C176.348 46.507 180.855 42.0006 186.392 42.0006H293.532C294.423 42.0006 295.274 42.352 295.899 42.9815L329.381 76.4626C330.01 77.0889 330.361 77.9393 330.361 78.8297V183.579C330.361 184.932 329.548 186.157 328.296 186.673C327.047 187.195 325.604 186.904 324.646 185.947L318.161 179.468L307.118 190.51L329.38 212.779C330.01 213.405 330.361 214.256 330.361 215.146V239.541C330.361 241.391 328.865 242.888 327.013 242.888Z" fill="#223762"/>
</g>
<path d="M485.563 0H445.129C443.664 0 442.258 0.577814 441.222 1.60632C440.186 2.63482 439.604 4.02978 439.604 5.4843V30.177C439.604 31.6315 440.186 33.0265 441.222 34.055C442.258 35.0835 443.664 35.6613 445.129 35.6613H453.944L462.26 46.9509H465.346L476.721 35.6613H485.563C487.028 35.6613 488.434 35.0835 489.47 34.055C490.506 33.0265 491.089 31.6315 491.089 30.177V5.47091C491.085 4.0187 490.501 2.6272 489.465 1.60158C488.429 0.57597 487.026 -4.31946e-06 485.563 0Z" fill="url(#paint1_linear)"/>
<path d="M482.443 0H441.967C440.5 0 439.093 0.577814 438.056 1.60632C437.018 2.63482 436.436 4.02978 436.436 5.4843V30.177C436.436 31.6315 437.018 33.0265 438.056 34.055C439.093 35.0835 440.5 35.6613 441.967 35.6613H450.791L462.178 46.9509L473.565 35.6613H482.389C483.856 35.6613 485.263 35.0835 486.3 34.055C487.338 33.0265 487.921 31.6315 487.921 30.177V5.47091C487.917 4.02793 487.34 2.64446 486.315 1.62036C485.29 0.596265 483.898 0.0140738 482.443 0Z" fill="url(#paint2_linear)"/>
<path d="M463.366 49.7724C463.366 49.7724 429.389 68.4318 409.344 61.8911C389.299 55.3504 406.047 42.2559 417.418 42.2559C428.788 42.2559 435.407 79.0341 435.407 79.0341" stroke="#222222" stroke-width="0.5" stroke-linecap="round" stroke-linejoin="round" stroke-dasharray="3 3"/>
<path d="M415.842 67.2962C418.467 67.2962 420.595 65.019 420.595 62.2099C420.595 59.4008 418.467 57.1235 415.842 57.1235C413.218 57.1235 411.09 59.4008 411.09 62.2099C411.09 65.019 413.218 67.2962 415.842 67.2962Z" fill="#FFD46A"/>
<path d="M5.52511 22.6377H45.9585C47.424 22.6377 48.8296 23.2155 49.8659 24.244C50.9022 25.2725 51.4844 26.6675 51.4844 28.122V52.8147C51.4844 54.2692 50.9022 55.6642 49.8659 56.6927C48.8296 57.7212 47.424 58.299 45.9585 58.299H37.144L28.8282 69.5886H25.7418L14.3665 58.299H5.52511C4.05955 58.299 2.65402 57.7212 1.61771 56.6927C0.581406 55.6642 -0.000789642 54.2692 -0.000789642 52.8147V28.1086C0.0027771 26.6564 0.586563 25.2649 1.62248 24.2393C2.6584 23.2137 4.06189 22.6377 5.52511 22.6377Z" fill="url(#paint3_linear)"/>
<path d="M8.6469 22.6377H49.1226C50.5897 22.6377 51.9967 23.2155 53.0341 24.244C54.0715 25.2725 54.6543 26.6675 54.6543 28.122V52.8147C54.6543 54.2692 54.0715 55.6642 53.0341 56.6927C51.9967 57.7212 50.5897 58.299 49.1226 58.299H40.2989L28.9117 69.5886L17.5246 58.299H8.70088C7.23378 58.299 5.82678 57.7212 4.78939 56.6927C3.752 55.6642 3.16919 54.2692 3.16919 52.8147V28.1086C3.17267 26.6656 3.74961 25.2822 4.77497 24.2581C5.80034 23.234 7.19151 22.6518 8.6469 22.6377Z" fill="url(#paint4_linear)"/>
<path d="M37 89.613L36.9539 89.3673L37 89.613ZM28.2501 76.6217C28.2659 77.0776 28.2971 77.5728 28.346 78.095L28.8439 78.0483C28.7958 77.5356 28.7652 77.0502 28.7499 76.6044L28.2501 76.6217ZM28.7756 81.0125C28.9684 81.9648 29.2197 82.9348 29.5397 83.8675L30.0126 83.7052C29.7009 82.7966 29.4549 81.8481 29.2657 80.9133L28.7756 81.0125ZM30.7608 86.5756C31.2965 87.4796 31.9385 88.2713 32.7048 88.8626L33.0102 88.4667C32.3069 87.924 31.7038 87.1862 31.191 86.3207L30.7608 86.5756ZM35.5241 89.9548C36.005 89.9887 36.5121 89.9589 37.0461 89.8588L36.9539 89.3673C36.4589 89.4601 35.9947 89.4867 35.5592 89.456L35.5241 89.9548ZM37.0461 89.8588C37.6776 89.7404 38.2172 89.5828 38.6731 89.3927L38.4807 88.9312C38.0629 89.1054 37.5579 89.2541 36.9539 89.3673L37.0461 89.8588ZM40.7175 86.7602C40.6749 85.6725 39.9325 84.5908 38.9851 83.8518L38.6776 84.2461C39.56 84.9344 40.1831 85.8934 40.2179 86.7798L40.7175 86.7602ZM35.7296 82.9292C35.1712 83.071 34.6703 83.407 34.292 83.9743L34.708 84.2517C35.019 83.7853 35.4165 83.5246 35.8527 83.4138L35.7296 82.9292ZM34.292 83.9743C34.0403 84.3518 33.8327 84.7532 33.6675 85.1733L34.1328 85.3563C34.2854 84.9682 34.4767 84.5986 34.708 84.2517L34.292 83.9743ZM33.1743 87.8054C33.1642 88.6659 33.2839 89.5554 33.5234 90.4445L34.0062 90.3145C33.7775 89.4654 33.6647 88.6217 33.6743 87.8113L33.1743 87.8054ZM34.4997 92.9108C34.9011 93.6732 35.3895 94.4158 35.9589 95.1189L36.3474 94.8042C35.7983 94.1261 35.3281 93.4109 34.9421 92.6779L34.4997 92.9108ZM37.8081 97.0091C38.1415 97.2918 38.4912 97.562 38.8566 97.8178L39.1434 97.4082C38.7907 97.1614 38.4532 96.9006 38.1315 96.6278L37.8081 97.0091ZM38.8566 97.8178C39.2545 98.0964 39.7258 98.3141 40.2512 98.4871L40.4076 98.0122C39.9144 97.8498 39.4906 97.6513 39.1434 97.4082L38.8566 97.8178ZM43.217 99.0495C44.1474 99.1452 45.1517 99.2027 46.1919 99.254L46.2166 98.7546C45.1771 98.7033 44.1843 98.6464 43.2682 98.5521L43.217 99.0495ZM49.155 99.4059C50.1382 99.4668 51.1267 99.5468 52.0967 99.6693L52.1594 99.1732C51.1749 99.0489 50.1749 98.9681 49.1859 98.9068L49.155 99.4059ZM54.9837 100.202C55.9567 100.453 56.8751 100.779 57.7102 101.209L57.9388 100.764C57.0634 100.314 56.1085 99.9757 55.1085 99.718L54.9837 100.202ZM60.0142 102.916C60.6361 103.58 61.1513 104.377 61.5298 105.334L61.9948 105.151C61.5934 104.135 61.0446 103.285 60.3793 102.574L60.0142 102.916ZM62.1807 108.149C62.2263 108.611 62.25 109.098 62.25 109.613H62.75C62.75 109.083 62.7256 108.579 62.6783 108.1L62.1807 108.149Z" fill="black"/>
<path d="M44.7534 99.9893C42.1287 99.9893 40.0009 97.7121 40.0009 94.903C40.0009 92.0939 42.1287 89.8167 44.7534 89.8167C47.3781 89.8167 49.5059 92.0939 49.5059 94.903C49.5059 97.7121 47.3781 99.9893 44.7534 99.9893Z" fill="#FFD46A"/>
<defs>
<linearGradient id="paint0_linear" x1="107.712" y1="138.626" x2="536.8" y2="454.926" gradientUnits="userSpaceOnUse">
<stop stop-color="#EAF1FC"/>
<stop offset="1" stop-color="#C0D4F4"/>
</linearGradient>
<linearGradient id="paint1_linear" x1="14282.9" y1="7208.84" x2="16248.6" y2="7208.84" gradientUnits="userSpaceOnUse">
<stop stop-color="#223762"/>
<stop offset="1" stop-color="#041B48"/>
</linearGradient>
<linearGradient id="paint2_linear" x1="14163.4" y1="7208.84" x2="16128.6" y2="7208.84" gradientUnits="userSpaceOnUse">
<stop stop-color="#4C93F4"/>
<stop offset="1" stop-color="#0B63DA"/>
</linearGradient>
<linearGradient id="paint3_linear" x1="-13791.8" y1="7231.48" x2="-15757.6" y2="7231.48" gradientUnits="userSpaceOnUse">
<stop stop-color="#223762"/>
<stop offset="1" stop-color="#041B48"/>
</linearGradient>
<linearGradient id="paint4_linear" x1="-13672.3" y1="7231.48" x2="-15637.5" y2="7231.48" gradientUnits="userSpaceOnUse">
<stop stop-color="#4C93F4"/>
<stop offset="1" stop-color="#0B63DA"/>
</linearGradient>
<clipPath id="clip0">
<rect width="201" height="201" fill="white" transform="translate(173 42)"/>
</clipPath>
</defs>
</svg>
