<svg width="36" height="36" viewBox="0 0 36 36" fill="none" xmlns="http://www.w3.org/2000/svg">
<g clip-path="url(#clip0)">
<path d="M28.125 36H7.875C6.015 36 4.5 34.4865 4.5 32.625V16.875C4.5 15.0135 6.015 13.5 7.875 13.5H28.125C29.985 13.5 31.5 15.0135 31.5 16.875V32.625C31.5 34.4865 29.985 36 28.125 36ZM7.875 15.75C7.2555 15.75 6.75 16.254 6.75 16.875V32.625C6.75 33.246 7.2555 33.75 7.875 33.75H28.125C28.7445 33.75 29.25 33.246 29.25 32.625V16.875C29.25 16.254 28.7445 15.75 28.125 15.75H7.875Z" fill="#2D4063"/>
<path d="M25.875 15.75C25.254 15.75 24.75 15.246 24.75 14.625V9C24.75 5.2785 21.7215 2.25 18 2.25C14.2785 2.25 11.25 5.2785 11.25 9V14.625C11.25 15.246 10.746 15.75 10.125 15.75C9.504 15.75 9 15.246 9 14.625V9C9 4.0365 13.0365 0 18 0C22.9635 0 27 4.0365 27 9V14.625C27 15.246 26.496 15.75 25.875 15.75Z" fill="#2D4063"/>
</g>
<defs>
<clipPath id="clip0">
<rect width="36" height="36" fill="white"/>
</clipPath>
</defs>
</svg>
