<svg width="292" height="292" viewBox="0 0 292 292" fill="none" xmlns="http://www.w3.org/2000/svg">
<circle cx="145.5" cy="146.5" r="132.5" fill="#F3F7FD"/>
<circle cx="146" cy="146" r="145.5" stroke="#EDF3FC"/>
<g clip-path="url(#clip0)">
<g clip-path="url(#clip1)">
<path d="M133.962 94.4857C134.162 95.1083 135.06 95.1153 135.282 94.5087C135.5 93.9152 134.837 93.3519 134.286 93.6612C134 93.8216 133.859 94.1724 133.962 94.4857Z" fill="#2D4063"/>
<path d="M148.736 114.062C148.62 113.078 147.759 111.801 146.102 110.158C145.134 109.198 144.198 108.419 143.89 108.167C143.541 107.56 143.072 106.674 142.524 105.552C142.852 105.462 143.074 105.145 143.033 104.798C142.988 104.415 142.641 104.141 142.258 104.186L141.894 104.228C141.734 103.883 141.569 103.521 141.4 103.144L141.416 103.142C141.799 103.097 142.073 102.75 142.028 102.367C141.983 101.984 141.636 101.709 141.253 101.754L140.813 101.806C140.661 101.454 140.508 101.091 140.353 100.718L140.412 100.711C140.795 100.666 141.069 100.319 141.024 99.9353C140.979 99.5523 140.631 99.2782 140.248 99.3232L139.806 99.3752C139.664 99.0187 139.521 98.6546 139.378 98.2829L139.407 98.2794C139.79 98.2344 140.064 97.8874 140.019 97.5041C139.974 97.121 139.627 96.8471 139.244 96.8919L138.869 96.9363C138.281 95.3471 137.694 93.6441 137.136 91.8512C137.047 91.5137 136.321 88.9143 134.864 88.1414C134.374 87.8817 133.842 87.8413 133.325 88.0245C131.431 88.6954 130.6 89.7453 130.599 91.5517C129.377 91.4072 128.251 91.0992 127.519 90.5213C126.229 89.5032 126.526 87.7336 126.787 86.1728C127.002 84.8841 127.206 83.6671 126.371 83.008C126.234 82.8997 126.086 82.7966 125.932 82.7016C124.344 81.7225 122.3 81.6526 120.596 82.519C119.174 83.2429 117.118 84.356 115.399 85.5488C113.408 86.929 112.336 88.0726 112.075 89.1061L108.575 91.0581C108.312 91.2045 108.173 91.5017 108.228 91.7969C108.264 91.9881 109.176 96.5402 115.368 101.428L135.041 116.961C139.044 120.121 143.478 120.783 145.556 118.592C146.215 118.524 146.901 118.157 147.488 117.548C148.413 116.587 148.879 115.284 148.736 114.062ZM146.758 113.022C145.748 112.709 144.392 112.278 143.249 111.877C142.513 111.618 140.274 110.831 139.833 109.738C139.803 109.662 139.773 109.568 139.761 109.452C141.464 110.444 142.66 110.703 143.402 110.244C143.53 110.165 143.662 110.053 143.776 109.897C144.874 110.857 146.064 112.05 146.758 113.022ZM136.117 97.9631C136.139 98.1546 136.237 98.3189 136.378 98.4298C136.518 98.5405 136.701 98.5978 136.892 98.5752L137.945 98.4517C138.087 98.8243 138.229 99.1888 138.369 99.5445L137.734 99.619C137.351 99.6641 137.076 100.011 137.121 100.394C137.144 100.586 137.242 100.75 137.382 100.861C137.523 100.972 137.705 101.029 137.897 101.007L138.912 100.887C139.066 101.262 139.219 101.625 139.368 101.976L138.738 102.05C138.355 102.095 138.081 102.443 138.126 102.826C138.149 103.017 138.247 103.182 138.387 103.292C138.527 103.403 138.71 103.46 138.902 103.438L139.951 103.315C140.119 103.694 140.283 104.055 140.442 104.4L139.743 104.482C139.36 104.527 139.086 104.874 139.131 105.257C139.153 105.449 139.252 105.613 139.392 105.724C139.532 105.835 139.715 105.892 139.906 105.869L141.069 105.732C141.874 107.404 142.461 108.474 142.666 108.84C142.671 108.956 142.659 109.027 142.649 109.062C142.447 109.117 141.568 108.994 139.7 107.772C137.446 106.296 133.025 106.361 131.187 107.41C129.688 105.952 128.026 104.299 126.337 102.596C126.851 101.537 126.799 100.067 126.175 98.1594L137.14 96.2723C137.24 96.5536 137.34 96.831 137.441 97.1041L136.729 97.188C136.346 97.2328 136.072 97.5801 136.117 97.9631ZM133.792 89.341C133.939 89.2887 134.064 89.299 134.208 89.3755C134.742 89.6576 135.237 90.6245 135.548 91.468C134.607 91.5873 133.308 91.6883 131.993 91.6503C131.956 90.3823 132.428 89.8243 133.792 89.341ZM121.23 83.764C122.502 83.117 124.023 83.1652 125.199 83.8907C125.307 83.9579 125.411 84.0295 125.506 84.1044C125.692 84.2514 125.508 85.3514 125.409 85.9422C125.245 86.9214 125.047 88.1032 125.245 89.2225C124.264 89.053 123.396 88.4894 122.841 87.6558L120.503 84.1403C120.739 84.0164 120.98 83.8915 121.23 83.764ZM117.264 85.9895C118.009 86.9489 119.734 89.2302 121.389 91.8328C121.432 91.901 121.485 91.9589 121.545 92.0063C121.772 92.1853 122.096 92.2113 122.353 92.0474C122.678 91.8406 122.775 91.4089 122.568 91.0833C120.956 88.5479 119.277 86.3102 118.468 85.2616C118.723 85.1132 118.99 84.9613 119.268 84.8067L121.678 88.4293C121.975 88.8767 122.338 89.2676 122.749 89.5924C123.467 90.1592 124.334 90.525 125.264 90.6369L125.812 90.703C126.025 91.0305 126.3 91.3387 126.653 91.6177C129.102 93.5509 134.209 93.0593 135.976 92.8185C136.206 93.5443 136.439 94.2498 136.673 94.9351L125.676 96.8278C125.254 95.8177 124.701 94.706 124.014 93.4884C123.824 93.1526 123.398 93.0338 123.062 93.2235C122.726 93.413 122.607 93.8388 122.797 94.175C125.107 98.2694 125.439 100.391 125.235 101.483C119.94 96.119 114.656 90.582 113.464 89.3308C113.718 88.654 114.849 87.5132 117.264 85.9895ZM141.186 118.394C139.498 118.118 137.624 117.22 135.907 115.864L116.233 100.332C111.61 96.6821 110.138 93.2357 109.735 92.0108L112.577 90.4254C115.266 93.2497 130.832 109.547 135.335 113.102C135.442 113.187 135.549 113.27 135.655 113.352C135.962 113.587 136.4 113.529 136.635 113.223C136.867 112.919 136.813 112.486 136.513 112.25C136.511 112.247 136.508 112.245 136.506 112.243C136.404 112.165 136.302 112.086 136.2 112.006C135.296 111.292 133.91 110.026 132.257 108.442C132.779 108.252 133.618 108.077 134.702 108.048C136.156 108.009 137.507 108.24 138.45 108.676C138.304 109.222 138.333 109.752 138.538 110.26C138.753 110.794 139.145 111.246 139.637 111.635C140.519 112.331 141.719 112.82 142.786 113.195C144.405 113.764 146.442 114.39 147.358 114.667C147.307 115.448 146.897 116.147 146.482 116.579C146.112 116.963 145.69 117.198 145.36 117.207C144.83 117.021 142.048 115.989 138.74 113.829C138.417 113.618 137.984 113.709 137.773 114.032C137.562 114.356 137.655 114.789 137.976 114.999C140.444 116.61 142.609 117.611 143.866 118.129C142.971 118.578 141.869 118.506 141.186 118.394Z" fill="#2D4063"/>
</g>
<g clip-path="url(#clip2)">
<path d="M147.836 78.0913L146.579 74.796L143.194 75.0241L145.111 82.8728L147.3 80.6465C147.624 80.3162 147.847 79.9 147.941 79.4472C148.036 78.9944 148 78.5239 147.836 78.0913Z" fill="#2D4063"/>
<path d="M141.812 69.3632L142.701 73.0044L152.742 72.3282L151.095 69.903L141.812 69.3632Z" fill="#2D4063"/>
<path d="M165.522 81.1027C165.482 81.0631 165.445 81.0203 165.412 80.9747C165.302 80.8242 154.429 65.8888 150.88 62.3992C147.805 59.3759 138.687 53.6272 136.327 52.1583C136.004 52.4627 135.798 52.8709 135.745 53.3118C135.692 53.7526 135.795 54.1981 136.037 54.5705L139.411 59.7746C139.474 59.871 139.52 59.9772 139.547 60.0888L141.304 67.2823L151.719 67.8877C151.876 67.8969 152.029 67.9419 152.165 68.0194C152.302 68.097 152.419 68.2049 152.507 68.3348L155.44 72.6548C155.541 72.8039 155.602 72.9771 155.614 73.1569C155.627 73.3367 155.593 73.5167 155.514 73.6788C155.435 73.8408 155.314 73.9791 155.165 74.0797C155.015 74.1804 154.842 74.2397 154.662 74.2518L152.121 74.423L166.779 99.2534C170.252 97.109 173.143 94.1408 175.194 90.6118L165.522 81.1027Z" fill="#2D4063"/>
<path d="M137.69 50.5934C140.475 52.3297 149.167 57.8427 152.316 60.9388C155.897 64.4597 166.11 78.4543 167.018 79.7016L176.451 88.9756L180.041 85.3243L171.278 76.709L169.842 78.1695C169.736 78.2775 169.607 78.3607 169.465 78.4129C169.322 78.4651 169.17 78.4851 169.02 78.4715C168.869 78.4578 168.723 78.4109 168.592 78.334C168.462 78.2571 168.35 78.1523 168.265 78.0269C168.177 77.898 159.454 65.0844 153.752 59.4783C149.058 54.8633 141.379 50.1986 138.809 48.6924L137.69 50.5934Z" fill="#2D4063"/>
</g>
<path fill-rule="evenodd" clip-rule="evenodd" d="M112.443 107.252L94.0664 197.907H196.973L178.597 107.252H112.443ZM124.425 117.014C125.127 116.937 125.828 117.166 126.348 117.642C126.869 118.119 127.159 118.797 127.143 119.502V135.428C127.143 145.651 135.297 153.804 145.52 153.804C155.742 153.804 163.896 145.651 163.896 135.428V119.502C163.883 118.619 164.348 117.797 165.111 117.351C165.874 116.906 166.818 116.906 167.581 117.351C168.344 117.797 168.809 118.619 168.796 119.502V135.428C168.796 148.281 158.372 158.705 145.52 158.705C132.667 158.705 122.243 148.281 122.243 135.428V119.502C122.216 118.233 123.163 117.153 124.425 117.014Z" fill="#1F327C"/>
<circle cx="191.009" cy="184.803" r="32.4254" fill="#FF7235"/>
<ellipse cx="198.214" cy="184.803" rx="32.4254" ry="32.4254" fill="#FF8551"/>
<g clip-path="url(#clip3)">
<path d="M218.112 169.931C217.423 169.247 216.303 169.247 215.613 169.931L190.608 194.77L179.614 183.932C178.924 183.248 177.804 183.248 177.115 183.932C176.425 184.616 176.425 185.724 177.115 186.406L189.364 198.48C190.046 199.156 191.182 199.156 191.864 198.48L218.112 172.406C218.803 171.723 218.803 170.614 218.112 169.931C217.423 169.247 218.803 170.614 218.112 169.931Z" fill="#1F327C"/>
</g>
</g>
<defs>
<clipPath id="clip0">
<rect width="238.687" height="238.687" fill="white" transform="translate(26.6309 27.6301)"/>
</clipPath>
<clipPath id="clip1">
<rect width="47.0326" height="47.0326" fill="white" transform="matrix(0.78487 0.61966 -0.619661 0.784869 127.639 66.8247)"/>
</clipPath>
<clipPath id="clip2">
<rect width="65.5402" height="65.5402" fill="white" transform="translate(152.82 120.315) rotate(-135.487)"/>
</clipPath>
<clipPath id="clip3">
<rect width="42.0329" height="42.0329" fill="white" transform="translate(176.598 163.186)"/>
</clipPath>
</defs>
</svg>
