<svg width="512" height="291" viewBox="0 0 512 291" fill="none" xmlns="http://www.w3.org/2000/svg">
<path opacity="0.49" d="M392.016 104.37C288.127 104.716 224.76 59.6764 175.33 51.0102C101.058 37.9976 3.10416 71.6725 66.2741 164.833C129.444 257.993 162.181 281.687 275.922 289.635C366.976 295.996 447.183 259.544 479.093 230.452C529.113 184.938 495.944 104.024 392.016 104.37Z" fill="url(#paint0_linear)"/>
<path d="M15 231.435V195.685L96.8789 78.5896H146.369V193.094H167.616V231.435H146.369V265.113H102.061V231.435H15ZM105.17 127.293L61.6399 193.094H105.17V127.293Z" fill="#08448B"/>
<path d="M189.319 167.965C189.319 138.26 195.019 114.858 206.42 97.76C217.993 80.662 236.563 72.113 262.129 72.113C287.694 72.113 306.177 80.662 317.578 97.76C329.152 114.858 334.939 138.26 334.939 167.965C334.939 198.016 329.152 221.591 317.578 238.689C306.177 255.787 287.694 264.336 262.129 264.336C236.563 264.336 217.993 255.787 206.42 238.689C195.019 221.591 189.319 198.016 189.319 167.965ZM291.408 167.965C291.408 150.522 289.508 137.137 285.708 127.811C281.907 118.312 274.048 113.563 262.129 113.563C250.209 113.563 242.35 118.312 238.549 127.811C234.749 137.137 232.849 150.522 232.849 167.965C232.849 179.709 233.54 189.467 234.922 197.239C236.304 204.838 239.068 211.056 243.213 215.892C247.532 220.555 253.837 222.886 262.129 222.886C270.42 222.886 276.639 220.555 280.785 215.892C285.103 211.056 287.953 204.838 289.335 197.239C290.717 189.467 291.408 179.709 291.408 167.965Z" fill="#08448B"/>
<path d="M359.384 231.435V195.685L441.263 78.5896H490.753V193.094H512V231.435H490.753V265.113H446.445V231.435H359.384ZM449.554 127.293L406.024 193.094H449.554V127.293Z" fill="#08448B"/>
<path d="M485.563 0H445.129C443.664 0 442.258 0.577814 441.222 1.60632C440.186 2.63482 439.604 4.02978 439.604 5.4843V30.177C439.604 31.6315 440.186 33.0265 441.222 34.055C442.258 35.0835 443.664 35.6613 445.129 35.6613H453.944L462.26 46.9509H465.346L476.721 35.6613H485.563C487.028 35.6613 488.434 35.0835 489.47 34.055C490.506 33.0265 491.089 31.6315 491.089 30.177V5.47091C491.085 4.0187 490.501 2.6272 489.465 1.60158C488.429 0.57597 487.026 -4.31946e-06 485.563 0Z" fill="url(#paint1_linear)"/>
<path d="M482.443 0H441.967C440.5 0 439.093 0.577814 438.056 1.60632C437.018 2.63482 436.436 4.02978 436.436 5.4843V30.177C436.436 31.6315 437.018 33.0265 438.056 34.055C439.093 35.0835 440.5 35.6613 441.967 35.6613H450.791L462.178 46.9509L473.565 35.6613H482.389C483.856 35.6613 485.263 35.0835 486.3 34.055C487.338 33.0265 487.921 31.6315 487.921 30.177V5.47091C487.917 4.02793 487.34 2.64446 486.315 1.62036C485.29 0.596265 483.898 0.0140738 482.443 0Z" fill="url(#paint2_linear)"/>
<path d="M463.366 49.7724C463.366 49.7724 429.389 68.4318 409.344 61.8911C389.299 55.3504 406.047 42.2559 417.418 42.2559C428.788 42.2559 435.407 79.0341 435.407 79.0341" stroke="#222222" stroke-width="0.5" stroke-linecap="round" stroke-linejoin="round" stroke-dasharray="3 3"/>
<path d="M415.842 67.2962C418.467 67.2962 420.595 65.019 420.595 62.2099C420.595 59.4008 418.467 57.1235 415.842 57.1235C413.218 57.1235 411.09 59.4008 411.09 62.2099C411.09 65.019 413.218 67.2962 415.842 67.2962Z" fill="#FFD46A"/>
<path d="M5.52511 22.6377H45.9585C47.424 22.6377 48.8296 23.2155 49.8659 24.244C50.9022 25.2725 51.4844 26.6675 51.4844 28.122V52.8147C51.4844 54.2692 50.9022 55.6642 49.8659 56.6927C48.8296 57.7212 47.424 58.299 45.9585 58.299H37.144L28.8282 69.5886H25.7418L14.3665 58.299H5.52511C4.05955 58.299 2.65402 57.7212 1.61771 56.6927C0.581406 55.6642 -0.000789642 54.2692 -0.000789642 52.8147V28.1086C0.0027771 26.6564 0.586563 25.2649 1.62248 24.2393C2.6584 23.2137 4.06189 22.6377 5.52511 22.6377Z" fill="url(#paint3_linear)"/>
<path d="M8.6469 22.6377H49.1226C50.5897 22.6377 51.9967 23.2155 53.0341 24.244C54.0715 25.2725 54.6543 26.6675 54.6543 28.122V52.8147C54.6543 54.2692 54.0715 55.6642 53.0341 56.6927C51.9967 57.7212 50.5897 58.299 49.1226 58.299H40.2989L28.9117 69.5886L17.5246 58.299H8.70088C7.23378 58.299 5.82678 57.7212 4.78939 56.6927C3.752 55.6642 3.16919 54.2692 3.16919 52.8147V28.1086C3.17267 26.6656 3.74961 25.2822 4.77497 24.2581C5.80034 23.234 7.19151 22.6518 8.6469 22.6377Z" fill="url(#paint4_linear)"/>
<path d="M37 89.613L36.9539 89.3673L37 89.613ZM28.2501 76.6217C28.2659 77.0776 28.2971 77.5728 28.346 78.095L28.8439 78.0483C28.7958 77.5356 28.7652 77.0502 28.7499 76.6044L28.2501 76.6217ZM28.7756 81.0125C28.9684 81.9648 29.2197 82.9348 29.5397 83.8675L30.0126 83.7052C29.7009 82.7966 29.4549 81.8481 29.2657 80.9133L28.7756 81.0125ZM30.7608 86.5756C31.2965 87.4796 31.9385 88.2713 32.7048 88.8626L33.0102 88.4667C32.3069 87.924 31.7038 87.1862 31.191 86.3207L30.7608 86.5756ZM35.5241 89.9548C36.005 89.9887 36.5121 89.9589 37.0461 89.8588L36.9539 89.3673C36.4589 89.4601 35.9947 89.4867 35.5592 89.456L35.5241 89.9548ZM37.0461 89.8588C37.6776 89.7404 38.2172 89.5828 38.6731 89.3927L38.4807 88.9312C38.0629 89.1054 37.5579 89.2541 36.9539 89.3673L37.0461 89.8588ZM40.7175 86.7602C40.6749 85.6725 39.9325 84.5908 38.9851 83.8518L38.6776 84.2461C39.56 84.9344 40.1831 85.8934 40.2179 86.7798L40.7175 86.7602ZM35.7296 82.9292C35.1712 83.071 34.6703 83.407 34.292 83.9743L34.708 84.2517C35.019 83.7853 35.4165 83.5246 35.8527 83.4138L35.7296 82.9292ZM34.292 83.9743C34.0403 84.3518 33.8327 84.7532 33.6675 85.1733L34.1328 85.3563C34.2854 84.9682 34.4767 84.5986 34.708 84.2517L34.292 83.9743ZM33.1743 87.8054C33.1642 88.6659 33.2839 89.5554 33.5234 90.4445L34.0062 90.3145C33.7775 89.4654 33.6647 88.6217 33.6743 87.8113L33.1743 87.8054ZM34.4997 92.9108C34.9011 93.6732 35.3895 94.4158 35.9589 95.1189L36.3474 94.8042C35.7983 94.1261 35.3281 93.4109 34.9421 92.6779L34.4997 92.9108ZM37.8081 97.0091C38.1415 97.2918 38.4912 97.562 38.8566 97.8178L39.1434 97.4082C38.7907 97.1614 38.4532 96.9006 38.1315 96.6278L37.8081 97.0091ZM38.8566 97.8178C39.2545 98.0964 39.7258 98.3141 40.2512 98.4871L40.4076 98.0122C39.9144 97.8498 39.4906 97.6513 39.1434 97.4082L38.8566 97.8178ZM43.217 99.0495C44.1474 99.1452 45.1517 99.2027 46.1919 99.254L46.2166 98.7546C45.1771 98.7033 44.1843 98.6464 43.2682 98.5521L43.217 99.0495ZM49.155 99.4059C50.1382 99.4668 51.1267 99.5468 52.0967 99.6693L52.1594 99.1732C51.1749 99.0489 50.1749 98.9681 49.1859 98.9068L49.155 99.4059ZM54.9837 100.202C55.9567 100.453 56.8751 100.779 57.7102 101.209L57.9388 100.764C57.0634 100.314 56.1085 99.9757 55.1085 99.718L54.9837 100.202ZM60.0142 102.916C60.6361 103.58 61.1513 104.377 61.5298 105.334L61.9948 105.151C61.5934 104.135 61.0446 103.285 60.3793 102.574L60.0142 102.916ZM62.1807 108.149C62.2263 108.611 62.25 109.098 62.25 109.613H62.75C62.75 109.083 62.7256 108.579 62.6783 108.1L62.1807 108.149Z" fill="black"/>
<path d="M44.7534 99.9893C42.1287 99.9893 40.0009 97.7121 40.0009 94.903C40.0009 92.0939 42.1287 89.8167 44.7534 89.8167C47.3781 89.8167 49.5059 92.0939 49.5059 94.903C49.5059 97.7121 47.3781 99.9893 44.7534 99.9893Z" fill="#FFD46A"/>
<defs>
<linearGradient id="paint0_linear" x1="107.712" y1="138.626" x2="536.8" y2="454.926" gradientUnits="userSpaceOnUse">
<stop stop-color="#EAF1FC"/>
<stop offset="1" stop-color="#C0D4F4"/>
</linearGradient>
<linearGradient id="paint1_linear" x1="14282.9" y1="7208.84" x2="16248.6" y2="7208.84" gradientUnits="userSpaceOnUse">
<stop stop-color="#223762"/>
<stop offset="1" stop-color="#041B48"/>
</linearGradient>
<linearGradient id="paint2_linear" x1="14163.4" y1="7208.84" x2="16128.6" y2="7208.84" gradientUnits="userSpaceOnUse">
<stop stop-color="#4C93F4"/>
<stop offset="1" stop-color="#0B63DA"/>
</linearGradient>
<linearGradient id="paint3_linear" x1="-13791.8" y1="7231.48" x2="-15757.6" y2="7231.48" gradientUnits="userSpaceOnUse">
<stop stop-color="#223762"/>
<stop offset="1" stop-color="#041B48"/>
</linearGradient>
<linearGradient id="paint4_linear" x1="-13672.3" y1="7231.48" x2="-15637.5" y2="7231.48" gradientUnits="userSpaceOnUse">
<stop stop-color="#4C93F4"/>
<stop offset="1" stop-color="#0B63DA"/>
</linearGradient>
</defs>
</svg>
