<svg width="32" height="38" viewBox="0 0 32 38" fill="none" xmlns="http://www.w3.org/2000/svg">
<g clip-path="url(#clip0)">
<path d="M31.5249 13.7353C31.1024 13.1058 30.4684 12.7446 29.7856 12.7446H23.6228L20.281 3.65781C20.0738 3.09442 19.5212 2.83695 19.0467 3.08314C18.5722 3.32917 18.3555 3.98549 18.5628 4.54896L21.5768 12.7447H10.4232L13.4373 4.54896C13.6444 3.98549 13.4278 3.32924 12.9533 3.08314C12.4789 2.83695 11.9262 3.09427 11.719 3.65781L8.37719 12.7447H2.21444C1.53157 12.7447 0.897629 13.1058 0.475066 13.7354C0.0602539 14.3535 -0.0928086 15.1481 0.0551289 15.9156L3.34619 32.9859C3.576 34.1779 4.46394 35.0103 5.5055 35.0103H26.4945C27.5361 35.0103 28.424 34.1779 28.6538 32.9859L31.9449 15.9156C32.0928 15.148 31.9397 14.3534 31.5249 13.7353ZM26.4945 32.7837H5.5055C5.34632 32.7837 5.20688 32.6597 5.17394 32.4889L1.88288 15.4187C1.85707 15.2848 1.90038 15.184 1.94138 15.123C1.97938 15.0663 2.06544 14.9713 2.21444 14.9713H7.55838L7.31282 15.639C7.10563 16.2025 7.32225 16.8587 7.79675 17.1048C7.91888 17.1682 8.04613 17.1982 8.17144 17.1982C8.53281 17.1982 8.87719 16.9486 9.03106 16.5302L9.60438 14.9714H22.3958L22.9691 16.5302C23.1229 16.9487 23.4673 17.1982 23.8287 17.1982C23.9539 17.1982 24.0813 17.1682 24.2034 17.1048C24.6779 16.8588 24.8946 16.2025 24.6873 15.639L24.4417 14.9713H29.7857C29.9347 14.9713 30.0208 15.0663 30.0588 15.123C30.0997 15.1841 30.1431 15.2848 30.1173 15.4187L26.8262 32.489C26.7932 32.6597 26.6537 32.7837 26.4945 32.7837Z" fill="white"/>
<path d="M10.375 19.7954C9.85725 19.7954 9.4375 20.2939 9.4375 20.9087V29.0728C9.4375 29.6876 9.85725 30.186 10.375 30.186C10.8928 30.186 11.3125 29.6876 11.3125 29.0728V20.9087C11.3125 20.2939 10.8928 19.7954 10.375 19.7954Z" fill="white"/>
<path d="M16 19.7954C15.4822 19.7954 15.0625 20.2939 15.0625 20.9087V29.0728C15.0625 29.6876 15.4822 30.186 16 30.186C16.5178 30.186 16.9375 29.6876 16.9375 29.0728V20.9087C16.9375 20.2939 16.5178 19.7954 16 19.7954Z" fill="white"/>
<path d="M21.625 19.7954C21.1072 19.7954 20.6875 20.2939 20.6875 20.9087V29.0728C20.6875 29.6876 21.1072 30.186 21.625 30.186C22.1428 30.186 22.5625 29.6876 22.5625 29.0728V20.9087C22.5624 20.2939 22.1428 19.7954 21.625 19.7954Z" fill="white"/>
</g>
<defs>
<clipPath id="clip0">
<rect width="32" height="38" fill="white"/>
</clipPath>
</defs>
</svg>
