<svg width="38" height="39" viewBox="0 0 38 39" fill="none" xmlns="http://www.w3.org/2000/svg">
<g clip-path="url(#clip0)" filter="url(#filter0_d)">
<path d="M21.8711 15.5C21.8711 17.0857 20.5857 18.3711 19 18.3711C17.4143 18.3711 16.1289 17.0857 16.1289 15.5C16.1289 13.9143 17.4143 12.6289 19 12.6289C20.5857 12.6289 21.8711 13.9143 21.8711 15.5Z" fill="white"/>
<path d="M25.7134 10.4202C25.5754 10.0462 25.3552 9.70764 25.0691 9.42978C24.7913 9.14368 24.453 8.92349 24.0788 8.78548C23.7753 8.6676 23.3193 8.5273 22.4796 8.48907C21.5711 8.44765 21.2988 8.43872 18.999 8.43872C16.6989 8.43872 16.4266 8.44742 15.5184 8.48885C14.6786 8.5273 14.2224 8.6676 13.9192 8.78548C13.5449 8.92349 13.2064 9.14368 12.9288 9.42978C12.6427 9.70764 12.4225 10.0459 12.2843 10.4202C12.1664 10.7236 12.0261 11.1798 11.9879 12.0196C11.9464 12.9278 11.9375 13.2001 11.9375 15.5002C11.9375 17.8 11.9464 18.0724 11.9879 18.9808C12.0261 19.8206 12.1664 20.2765 12.2843 20.58C12.4225 20.9542 12.6425 21.2925 12.9286 21.5704C13.2064 21.8565 13.5447 22.0766 13.9189 22.2147C14.2224 22.3328 14.6786 22.4731 15.5184 22.5113C16.4266 22.5527 16.6987 22.5614 18.9987 22.5614C21.299 22.5614 21.5714 22.5527 22.4793 22.5113C23.3191 22.4731 23.7753 22.3328 24.0788 22.2147C24.83 21.9249 25.4237 21.3312 25.7134 20.58C25.8313 20.2765 25.9716 19.8206 26.0101 18.9808C26.0515 18.0724 26.0602 17.8 26.0602 15.5002C26.0602 13.2001 26.0515 12.9278 26.0101 12.0196C25.9718 11.1798 25.8315 10.7236 25.7134 10.4202ZM18.999 19.9229C16.5561 19.9229 14.5758 17.9428 14.5758 15.5C14.5758 13.0571 16.5561 11.077 18.999 11.077C21.4416 11.077 23.4219 13.0571 23.4219 15.5C23.4219 17.9428 21.4416 19.9229 18.999 19.9229ZM23.5967 11.9358C23.0259 11.9358 22.5631 11.473 22.5631 10.9022C22.5631 10.3313 23.0259 9.86855 23.5967 9.86855C24.1676 9.86855 24.6304 10.3313 24.6304 10.9022C24.6301 11.473 24.1676 11.9358 23.5967 11.9358Z" fill="white"/>
<path d="M19 0.5C10.717 0.5 4 7.217 4 15.5C4 23.783 10.717 30.5 19 30.5C27.283 30.5 34 23.783 34 15.5C34 7.217 27.283 0.5 19 0.5ZM27.5613 19.0511C27.5197 19.968 27.3739 20.594 27.161 21.1419C26.7135 22.2989 25.7989 23.2135 24.6419 23.661C24.0942 23.8739 23.468 24.0194 22.5513 24.0613C21.6328 24.1032 21.3394 24.1133 19.0002 24.1133C16.6608 24.1133 16.3676 24.1032 15.4489 24.0613C14.5322 24.0194 13.906 23.8739 13.3583 23.661C12.7833 23.4447 12.2629 23.1057 11.8326 22.6674C11.3945 22.2374 11.0555 21.7167 10.8392 21.1419C10.6264 20.5942 10.4806 19.968 10.4389 19.0513C10.3966 18.1326 10.3867 17.8392 10.3867 15.5C10.3867 13.1608 10.3966 12.8674 10.4387 11.9489C10.4803 11.032 10.6259 10.406 10.8388 9.85806C11.0551 9.28334 11.3943 8.76263 11.8326 8.33257C12.2626 7.89426 12.7833 7.55528 13.3581 7.33899C13.906 7.12613 14.532 6.98056 15.4489 6.93867C16.3674 6.89679 16.6608 6.88672 19 6.88672C21.3392 6.88672 21.6326 6.89679 22.5511 6.9389C23.468 6.98056 24.094 7.12613 24.6419 7.33876C25.2167 7.55505 25.7374 7.89426 26.1677 8.33257C26.6057 8.76286 26.9449 9.28334 27.161 9.85806C27.3741 10.406 27.5197 11.032 27.5616 11.9489C27.6034 12.8674 27.6133 13.1608 27.6133 15.5C27.6133 17.8392 27.6034 18.1326 27.5613 19.0511Z" fill="white"/>
</g>
<defs>
<filter id="filter0_d" x="0" y="0.5" width="38" height="38" filterUnits="userSpaceOnUse" color-interpolation-filters="sRGB">
<feFlood flood-opacity="0" result="BackgroundImageFix"/>
<feColorMatrix in="SourceAlpha" type="matrix" values="0 0 0 0 0 0 0 0 0 0 0 0 0 0 0 0 0 0 127 0"/>
<feOffset dy="4"/>
<feGaussianBlur stdDeviation="2"/>
<feColorMatrix type="matrix" values="0 0 0 0 0 0 0 0 0 0 0 0 0 0 0 0 0 0 0.25 0"/>
<feBlend mode="normal" in2="BackgroundImageFix" result="effect1_dropShadow"/>
<feBlend mode="normal" in="SourceGraphic" in2="effect1_dropShadow" result="shape"/>
</filter>
<clipPath id="clip0">
<rect width="30" height="30" fill="white" transform="translate(4 0.5)"/>
</clipPath>
</defs>
</svg>
