<svg width="20" height="20" viewBox="0 0 20 20" fill="none" xmlns="http://www.w3.org/2000/svg">
<g clip-path="url(#clip0)">
<path d="M19.2488 18.1341L13.7558 12.6412C14.7977 11.3549 15.4248 9.71974 15.4248 7.9394C15.4248 3.81227 12.0671 0.454529 7.93992 0.454529C3.81278 0.454529 0.455078 3.81227 0.455078 7.9394C0.455078 12.0665 3.81282 15.4243 7.93995 15.4243C9.72029 15.4243 11.3555 14.7971 12.6417 13.7553L18.1347 19.2482C18.2886 19.4021 18.5379 19.4021 18.6918 19.2482L19.2488 18.6912C19.4026 18.5374 19.4026 18.2879 19.2488 18.1341ZM7.93995 13.8485C4.68149 13.8485 2.03085 11.1979 2.03085 7.9394C2.03085 4.68094 4.68149 2.0303 7.93995 2.0303C11.1984 2.0303 13.8491 4.68094 13.8491 7.9394C13.8491 11.1979 11.1984 13.8485 7.93995 13.8485Z" fill="#1F327C" fill-opacity="0.5"/>
</g>
<defs>
<clipPath id="clip0">
<rect width="18.9091" height="18.9091" fill="white" transform="translate(0.455078 0.454529)"/>
</clipPath>
</defs>
</svg>
